# AST/ASF file generated using VICON BodyLanguage
# -----------------------------------------------
:version 1.10
:name VICON
:units
  mass 1.0
  length 0.45
  angle deg
:documentation
   .ast/.asf automatically generated from VICON data using
   VICON BodyBuilder and BodyLanguage model FoxedUp or BRILLIANT.MOD
:root
   order TX TY TZ RX RY RZ
   axis XYZ
   position 0 0 0  
   orientation 0 0 0 
:bonedata
  begin
     id 1 
     name lhipjoint
     direction 0.560651 -0.75055 0.34978 
     length 2.44936 
     axis 0 0 0  XYZ
  end
  begin
     id 2 
     name lfemur
     direction 0.34202 -0.939693 0  
     length 7.42139  
     axis 0 0 20  XYZ
    dof rx ry rz
    limits (-160.0 20.0)
           (-70.0 70.0)
           (-60.0 70.0)
  end
  begin
     id 3 
     name ltibia
     direction 0.34202 -0.939693 0   
     length 7.75674   
     axis 0 0 20   XYZ
    dof rx
    limits (-10.0 170.0)
  end
  begin
     id 4 
     name lfoot
     direction 0.0925879 -0.254383 0.962661   
     length 2.38688   
     axis -90 7.62852e-016 20   XYZ
    dof rx rz
    limits (-45.0 90.0)
           (-70.0 20.0)
  end
  begin
     id 5 
     name ltoes
     direction 1.53567e-011 -4.21973e-011 1   
     length 1.19228   
     axis -90 7.62852e-016 20   XYZ
    dof rx
    limits (-90.0 20.0)
  end
  begin
     id 6 
     name rhipjoint
     direction -0.540087 -0.762838 0.355506   
     length 2.4099  
     axis 0 0 0  XYZ 
  end
  begin
     id 7 
     name rfemur
     direction -0.34202 -0.939693 0   
     length 7.70794   
     axis 0 0 -20   XYZ
    dof rx ry rz
    limits (-160.0 20.0)
           (-70.0 70.0)
           (-70.0 60.0)
  end
  begin
     id 8 
     name rtibia
     direction -0.34202 -0.939693 0   
     length 7.66106   
     axis 0 0 -20   XYZ
    dof rx
    limits (-10.0 170.0)
 end
 begin
     id 9 
     name rfoot
     direction -0.0830975 -0.228308 0.970036   
     length 2.4989  
     axis -90 -7.62852e-016 -20   XYZ
    dof rx rz
    limits (-45.0 90.0)
           (-20.0 70.0)
  end
  begin
     id 10 
     name rtoes
     direction -1.53517e-011 -4.21842e-011 1   
     length 1.2498   
     axis -90 -7.62852e-016 -20   XYZ
    dof rx
    limits (-90.0 20.0)
  end
  begin
     id 11 
     name lowerback
     direction 0.0266356 0.99402 -0.105896   
     length 2.1545   
     axis 0 0 0   XYZ
    dof rx ry rz
    limits (-20.0 45.0)
           (-30.0 30.0)
           (-30.0 30.0)
  end
  begin
     id 12 
     name upperback
     direction 0.0130547 0.999192 0.0380027   
     length 2.1434   
     axis 0 0 0   XYZ
    dof rx ry rz
    limits (-20.0 45.0)
           (-30.0 30.0)
           (-30.0 30.0)
  end
  begin
     id 13 
     name thorax
     direction 0.000590299 0.996288 0.0860764   
     length 2.19049   
     axis 0 0 0   XYZ
    dof rx ry rz
    limits (-20.0 45.0)
           (-30.0 30.0)
           (-30.0 30.0)
  end
  begin
     id 14 
     name lowerneck
     direction -0.0432125 0.978219 0.203028   
     length 1.62441   
     axis 0 0 0   XYZ
    dof rx ry rz
    limits (-20.0 45.0)
           (-30.0 30.0)
           (-30.0 30.0)
  end
  begin
     id 15 
     name upperneck
     direction -0.0192309 0.991699 -0.127138   
     length 1.66666   
     axis 0 0 0   XYZ
    dof rx ry rz
    limits (-20.0 45.0)
           (-30.0 30.0)
           (-30.0 30.0)
  end
  begin
     id 16
     name head
     direction -0.00434499 0.997882 -0.0649107  
     length 1.67142  
     axis 0 0 0   XYZ
    dof rx ry rz
    limits (-20.0 45.0)
           (-30.0 30.0)
           (-30.0 30.0)
  end
  begin
     id 17 
     name lclavicle
     direction 0.970351 0.240904 -0.0196058  
     length 4.04862  
     axis 0 0 0   XYZ
    dof ry rz
    limits (-20.0 10.0)
           (0.0 20.0)
  end
  begin
     id 18 
     name lhumerus
     direction 1 -4.4896e-011 -1.40911e-018   
     length 5.58345   
     axis 180 -30 -90   XYZ
    dof rx ry rz
    limits (-60.0 90.0)
           (-90.0 90.0)
           (-90.0 90.0)
  end
  begin
     id 19
     name lradius
     direction 1 -4.48968e-011 5.88912e-028   
     length 3.71087   
     axis 180 -30 -90   XYZ
    dof rx
    limits (-10.0 170.0)
  end
  begin
     id 20
     name lwrist
     direction 1 -4.48955e-011 -8.83775e-028   
     length 1.85544   
     axis 5.52448e-016 90 90   XYZ
    dof ry
    limits (-180.0 0.0)
 end
  begin
     id 21 
     name lhand
     direction 1 -4.49035e-011 -1.76755e-027   
     length 0.562322   
     axis 1.12785e-015 90 90   XYZ
    dof rx rz
    limits (-90.0 90.0)
           (-45.0 45.0)
  end
  begin
     id 22 
     name lfingers
     direction 1 -4.48824e-011 -3.5351e-027   
     length 0.453359   
     axis 2.2557e-015 90 90   XYZ
    dof rx
    limits (0.0 90.0)
  end
  begin
     id 23
     name lthumb
     direction 0.707107 -6.34888e-011 0.707107   
     length 0.650935   
     axis -90 45 2.85299e-015   XYZ
    dof rx rz
    limits (-45.0 45.0)
           (-45.0 45.0)
  end
  begin
     id 24 
     name rclavicle
     direction -0.96165 0.268562 -0.0557131   
     length 4.05446  
     axis 0 0 0   XYZ 
    dof ry rz
    limits (-10.0 20.0)
           (-20.0 0.0)
  end
  begin
     id 25 
     name rhumerus
     direction -1 -4.48957e-011 -3.36329e-027  
     length 5.20357   
     axis 180 30 90   XYZ
    dof rx ry rz
    limits (-90.0 60.0)
           (-90.0 90.0)
           (-90.0 90.0)
  end
  begin
     id 26 
     name rradius
     direction -1 -4.48974e-011 4.51441e-027   
     length 3.64937   
     axis 180 30 90   XYZ
    dof rx
    limits (-10.0 170.0)
  end
  begin
     id 27 
     name rwrist
     direction -1 -4.4896e-011 -8.83775e-028   
     length 1.82468   
     axis 5.52448e-016 -90 -90   XYZ
    dof ry
    limits (-180.0 0.0)
  end
  begin
     id 28
     name rhand
     direction -1 -4.48996e-011 -1.76755e-027   
     length 0.617996   
     axis 1.12785e-015 -90 -90   XYZ
    dof rx rz
    limits (-90.0 90.0)
           (-45.0 45.0)
  end
  begin
     id 29
     name rfingers
     direction -1 -4.48957e-011 -3.5351e-027   
     length 0.498244   
     axis 2.2557e-015 -90 -90   XYZ
    dof rx
    limits (0.0 90.0)
  end
  begin
     id 30
     name rthumb
     direction -0.707107 -6.34931e-011 0.707107   
     length 0.715382   
     axis -90 -45 -2.85299e-015   XYZ
    dof rx rz
    limits (-45.0 45.0)
           (-45.0 45.0)
  end
:hierarchy
  begin
    root lhipjoint rhipjoint lowerback
    lhipjoint lfemur
    lfemur ltibia
    ltibia lfoot
    lfoot ltoes
    rhipjoint rfemur
    rfemur rtibia
    rtibia rfoot
    rfoot rtoes
    lowerback upperback
    upperback thorax
    thorax lowerneck lclavicle rclavicle
    lowerneck upperneck
    upperneck head
    lclavicle lhumerus
    lhumerus lradius
    lradius lwrist
    lwrist lhand lthumb
    lhand lfingers
    rclavicle rhumerus
    rhumerus rradius
    rradius rwrist
    rwrist rhand rthumb
    rhand rfingers
  end

#!OML:ASF H:\ManfredETheater\Project 1\Capture day 2\Session 1\Male1.ASF
:FULLY-SPECIFIED
:DEGREES
1
root -0.330587 15.5353 -9.49932 -13.6403 13.6715 2.39774
lowerback 15.0554 -3.54873 -3.47431
upperback 2.68501 -5.15363 1.30987
thorax -5.1268 -2.47155 4.31442
lowerneck -19.4284 1.1504 -0.75883
upperneck 17.8421 2.87528 -4.83495
head 8.86561 0.760704 -1.14636
rclavicle -6.3139e-014 3.97569e-015
rhumerus -75.185 3.24623 -76.348
rradius 72.5442
rwrist -8.01135
rhand -32.7965 4.86687
rfingers 7.12502
rthumb -6.01776 -25.0277
lclavicle -6.3139e-014 3.97569e-015
lhumerus -34.2515 -29.9568 88.6524
lradius 109.379
lwrist 6.29616
lhand -21.5103 -8.01457
lfingers 7.12502
lthumb 4.8816 21.9092
rfemur -32.6729 -5.22311 11.9941
rtibia 30.8629
rfoot -2.8607 -12.0285
rtoes -6.06482
lfemur -5.02668 -4.69734 -18.7683
ltibia 81.2381
lfoot -12.0984 -15.2636
ltoes -9.85022
2
root -0.35323 15.48 -8.98043 -13.9322 13.8573 2.91373
lowerback 14.8695 -3.24015 -4.10549
upperback 2.65353 -4.84789 1.18672
thorax -5.04536 -2.31482 4.47109
lowerneck -19.5169 0.890224 -1.10096
upperneck 18.1126 2.57726 -4.57807
head 8.95945 0.618341 -1.0433
rclavicle 8.20981e-014 -1.03368e-014
rhumerus -74.5049 3.69449 -75.9541
rradius 72.1373
rwrist -7.28795
rhand -32.5394 4.8011
rfingers 7.12502
rthumb -5.7695 -25.1004
lclavicle 8.20981e-014 -1.03368e-014
lhumerus -34.6293 -29.5072 88.5459
lradius 109.54
lwrist 5.54752
lhand -21.0204 -7.91276
lfingers 7.12502
lthumb 5.35467 21.9996
rfemur -31.5242 -5.17222 11.9634
rtibia 32.6756
rfoot -0.0527645 -10.8204
rtoes -11.1577
lfemur -4.90142 -4.45347 -18.7013
ltibia 82.5923
lfoot -12.2152 -15.2613
ltoes -5.65521
3
root -0.381551 15.5291 -8.5135 -14.1594 13.9424 2.9566
lowerback 15.0634 -2.95082 -4.23733
upperback 2.44765 -4.49673 1.20554
thorax -5.394 -2.12342 4.5287
lowerneck -19.4949 0.616384 -1.35233
upperneck 18.2361 2.25522 -4.46817
head 8.98788 0.459706 -1.00802
rclavicle -3.34455e-014 -6.36111e-015
rhumerus -73.714 4.12711 -75.5578
rradius 71.6296
rwrist -6.52242
rhand -32.4071 4.4999
rfingers 7.12502
rthumb -5.64174 -25.405
lclavicle -3.34455e-014 -6.36111e-015
lhumerus -35.1832 -28.8666 88.5348
lradius 109.684
lwrist 4.96708
lhand -20.7529 -8.06064
lfingers 7.12502
lthumb 5.6129 21.845
rfemur -31.8941 -4.41514 12.0073
rtibia 35.4252
rfoot 9.84392 -7.60183
rtoes -5.11206
lfemur -5.45117 -3.97403 -18.0707
ltibia 83.806
lfoot -11.9465 -14.7594
ltoes -5.97799
4
root -0.405089 15.5187 -8.07378 -14.5115 13.9432 2.39949
lowerback 15.6427 -2.71928 -3.67089
upperback 2.16059 -4.11022 1.38815
thorax -6.08416 -1.91352 4.38767
lowerneck -19.0767 0.352919 -1.50507
upperneck 17.9442 1.92747 -4.55375
head 8.80737 0.298353 -1.05305
rclavicle -7.50412e-015 -1.35174e-014
rhumerus -72.7575 4.42946 -75.1055
rradius 70.9572
rwrist -5.87929
rhand -32.295 4.14249
rfingers 7.12502
rthumb -5.5336 -25.7653
lclavicle -7.50412e-015 -1.35174e-014
lhumerus -35.8402 -28.0731 88.7872
lradius 109.623
lwrist 4.06094
lhand -21.269 -8.37381
lfingers 7.12502
lthumb 5.11459 21.5445
rfemur -32.6884 -4.11405 12.7853
rtibia 38.6229
rfoot 9.77672 -11.4872
rtoes 7.72264
lfemur -6.63301 -3.50074 -16.8251
ltibia 85.5121
lfoot -12.2366 -14.9821
ltoes -6.18346
5
root -0.423742 15.4522 -7.65834 -14.8441 13.7221 1.07663
lowerback 16.2045 -2.54197 -2.27766
upperback 1.83841 -3.61956 1.79442
thorax -6.84601 -1.6741 3.98852
lowerneck -18.6221 0.10549 -1.50432
upperneck 17.5982 1.62404 -4.87709
head 8.60733 0.134956 -1.19845
rclavicle -1.47101e-014 1.82882e-014
rhumerus -71.4904 4.57163 -74.6342
rradius 70.0687
rwrist -5.62894
rhand -32.3749 3.61723
rfingers 7.12502
rthumb -5.61068 -26.2885
lclavicle -1.47101e-014 1.82882e-014
lhumerus -36.4795 -27.0188 89.1773
lradius 109.515
lwrist 3.4359
lhand -21.464 -8.6235
lfingers 7.12502
lthumb 4.92629 21.2992
rfemur -34.0709 -3.65319 14.4462
rtibia 42.1829
rfoot 8.7851 -11.2283
rtoes 9.55283
lfemur -8.67749 -2.96694 -14.7686
ltibia 87.6803
lfoot -13.0409 -15.6748
ltoes -5.15256
6
root -0.430109 15.4046 -7.26755 -15.4386 12.7457 -1.13734
lowerback 16.8371 -2.32216 0.0928398
upperback 1.67737 -2.83363 2.53606
thorax -7.50893 -1.33144 3.3159
lowerneck -18.634 -0.150809 -1.80516
upperneck 17.6195 1.36721 -4.91868
head 8.61175 -0.0115113 -1.19618
rclavicle 3.72721e-014 -3.18055e-015
rhumerus -69.6815 4.76228 -74.0992
rradius 68.9572
rwrist -5.97178
rhand -32.5508 3.34053
rfingers 7.12502
rthumb -5.78049 -26.5606
lclavicle 3.72721e-014 -3.18055e-015
lhumerus -36.9956 -25.5583 89.707
lradius 109.335
lwrist 2.90061
lhand -21.6105 -8.6671
lfingers 7.12502
lthumb 4.78491 21.2589
rfemur -34.6309 -4.09314 17.7659
rtibia 45.9415
rfoot 6.66119 -10.2784
rtoes 4.79536
lfemur -10.7285 -1.98637 -11.6807
ltibia 89.8708
lfoot -14.1045 -16.6843
ltoes -4.55812
7
root -0.418921 15.3814 -6.9001 -16.2342 11.3567 -3.50639
lowerback 17.6218 -2.07096 2.87538
upperback 1.80514 -1.87679 3.30528
thorax -7.91848 -0.93616 2.37922
lowerneck -19.0881 -0.498589 -2.29672
upperneck 17.5826 0.996469 -4.69259
head 8.67075 -0.200312 -1.08858
rclavicle 1.40143e-014 -3.65764e-014
rhumerus -67.0622 4.87408 -73.4827
rradius 67.452
rwrist -6.53407
rhand -32.8807 3.02577
rfingers 7.12502
rthumb -6.09904 -26.8664
lclavicle 1.40143e-014 -3.65764e-014
lhumerus -37.157 -23.8589 90.1761
lradius 109.032
lwrist 2.45082
lhand -21.619 -8.49325
lfingers 7.12502
lthumb 4.7767 21.4329
rfemur -35.0835 -4.34637 21.0532
rtibia 49.2814
rfoot 4.73496 -9.58411
rtoes 4.41417
lfemur -12.6233 -0.739179 -8.55857
ltibia 91.8349
lfoot -15.0471 -17.5754
ltoes -4.74253
8
root -0.405682 15.3489 -6.53819 -16.6838 10.321 -5.0053
lowerback 17.996 -1.83909 4.63818
upperback 2.08061 -1.16133 3.86638
thorax -7.86179 -0.633297 1.82018
lowerneck -19.3733 -0.806835 -2.71518
upperneck 17.0365 0.632101 -4.47591
head 8.52848 -0.366946 -0.990465
rclavicle -3.21534e-014 -1.59028e-014
rhumerus -63.7623 5.28708 -72.9983
rradius 65.505
rwrist -7.75761
rhand -33.4875 3.42515
rfingers 7.12502
rthumb -6.6848 -26.4493
lclavicle -3.21534e-014 -1.59028e-014
lhumerus -37.21 -21.7994 90.5541
lradius 108.52
lwrist 1.81318
lhand -22.1964 -8.4098
lfingers 7.12502
lthumb 4.2191 21.5282
rfemur -35.322 -4.49976 23.1517
rtibia 52.2473
rfoot 2.45505 -8.92237
rtoes 4.54472
lfemur -14.9844 0.402891 -6.74405
ltibia 93.5949
lfoot -15.7402 -18.0722
ltoes -4.36468
9
root -0.443479 15.3498 -6.15562 -17.012 10.1541 -5.5702
lowerback 18.1747 -1.58404 4.61928
upperback 2.27965 -0.793216 4.234
thorax -7.7364 -0.446064 2.13806
lowerneck -18.9685 -1.03595 -2.89779
upperneck 16.1448 0.269416 -4.29648
head 8.15084 -0.504445 -0.934602
rclavicle 5.13858e-014 -1.27222e-014
rhumerus -60.3971 5.93443 -72.6112
rradius 63.1856
rwrist -8.57509
rhand -33.7573 3.6036
rfingers 7.12502
rthumb -6.94526 -26.2625
lclavicle 5.13858e-014 -1.27222e-014
lhumerus -37.6529 -19.5683 90.8898
lradius 107.796
lwrist 1.35964
lhand -22.6153 -8.27601
lfingers 7.12502
lthumb 3.81464 21.6696
rfemur -34.8387 -4.66037 24.1482
rtibia 54.6696
rfoot -0.149146 -8.9091
rtoes 3.96605
lfemur -17.3401 1.02107 -6.19419
ltibia 94.7948
lfoot -16.2637 -18.3415
ltoes -3.27587
10
root -0.495711 15.3675 -5.77053 -16.7115 10.7179 -4.58756
lowerback 17.9478 -1.17273 2.64633
upperback 2.28521 -0.660923 4.1836
thorax -7.58343 -0.32572 3.16262
lowerneck -18.6659 -1.19748 -2.64061
upperneck 15.7828 -0.0432283 -4.35404
head 7.97219 -0.630525 -1.02788
rclavicle -8.99501e-015 4.21423e-014
rhumerus -56.9179 6.64459 -72.2017
rradius 60.3914
rwrist -8.6089
rhand -33.6439 3.78698
rfingers 7.12502
rthumb -6.83584 -26.0827
lclavicle -8.99501e-015 4.21423e-014
lhumerus -38.2656 -17.3438 91.11
lradius 106.725
lwrist 1.38538
lhand -23.1933 -7.94421
lfingers 7.12502
lthumb 3.25639 22.0107
rfemur -34.7931 -4.95628 23.404
rtibia 56.9179
rfoot -1.83396 -9.2465
rtoes 2.36587
lfemur -20.1965 1.31613 -7.91985
ltibia 95.5593
lfoot -16.7238 -17.7841
ltoes -2.89381
11
root -0.524858 15.3681 -5.39459 -16.7379 11.242 -4.04883
lowerback 17.9701 -0.97623 1.37857
upperback 2.30838 -0.652884 4.14821
thorax -7.55597 -0.286118 3.8459
lowerneck -18.6838 -1.24509 -2.43466
upperneck 16.1281 -0.18253 -4.18708
head 8.08732 -0.674231 -1.02618
rclavicle 5.46658e-015 -1.82882e-014
rhumerus -53.3122 7.32978 -71.7488
rradius 57.3953
rwrist -7.43536
rhand -33.2776 3.43686
rfingers 7.12502
rthumb -6.48216 -26.4439
lclavicle 5.46658e-015 -1.82882e-014
lhumerus -38.8585 -15.1229 91.0637
lradius 105.276
lwrist 2.06064
lhand -24.0635 -7.20669
lfingers 7.12502
lthumb 2.41602 22.7594
rfemur -34.4919 -5.36076 22.9704
rtibia 58.9074
rfoot -3.58259 -9.59173
rtoes 2.85639
lfemur -22.9913 1.60791 -9.4234
ltibia 96.1168
lfoot -16.9579 -17.0808
ltoes -2.42966
